<?xml version="1.0" encoding="utf-8"?>
<!-- Generator: Adobe Illustrator 29.0.1, SVG Export Plug-In . SVG Version: 9.03 Build 54978)  -->
<svg version="1.1" id="Layer_1" xmlns="http://www.w3.org/2000/svg" xmlns:xlink="http://www.w3.org/1999/xlink" x="0px" y="0px"
	 viewBox="0 0 36.39 46.4" style="enable-background:new 0 0 36.39 46.4;" xml:space="preserve">
<path d="M18.18,14.96c1.31,0,2.42-0.43,3.31-1.3c0.9-0.86,1.34-1.94,1.34-3.22c0-1.28-0.45-2.35-1.34-3.22c-0.9-0.86-2-1.3-3.31-1.3
	c-1.31,0-2.42,0.43-3.31,1.3c-0.9,0.86-1.34,1.94-1.34,3.22c0,1.28,0.45,2.35,1.34,3.22C15.76,14.53,16.86,14.96,18.18,14.96z"/>
<path d="M28.53,32.67H18.01l10.74-12.15c0.16-0.18,0.25-0.42,0.25-0.66V16.2c0-0.67-0.65-1.16-1.29-0.96
	c-1.65,0.52-4.88,1.29-9.54,1.29c-4.66,0-7.88-0.77-9.54-1.29C8,15.04,7.35,15.53,7.35,16.2c0,0,0,2.59,0,4.7
	c0,0.45,0.3,0.85,0.74,0.97c3.06,0.83,8.82,0.79,8.82,0.79L7.08,33.78c-0.16,0.18-0.25,0.42-0.25,0.66v4.09c0,0.55,0.45,1,1,1h20.7
	c0.55,0,1-0.45,1-1v-4.86C29.53,33.12,29.08,32.67,28.53,32.67z"/>
</svg>
