<?xml version="1.0" encoding="utf-8"?>
<!-- Generator: Adobe Illustrator 29.0.1, SVG Export Plug-In . SVG Version: 9.03 Build 54978)  -->
<svg version="1.1" id="Layer_1" xmlns="http://www.w3.org/2000/svg" xmlns:xlink="http://www.w3.org/1999/xlink" x="0px" y="0px"
	 viewBox="0 0 119.13 50.21" style="enable-background:new 0 0 119.13 50.21;" xml:space="preserve">
<g>
	<path d="M41.52,6.38c-1.31,0-2.42,0.43-3.31,1.3c-0.9,0.86-1.34,1.94-1.34,3.22c0,1.28,0.45,2.35,1.34,3.22
		c0.9,0.86,2,1.3,3.31,1.3c1.31,0,2.42-0.43,3.31-1.3c0.9-0.86,1.34-1.94,1.34-3.22c0-1.28-0.45-2.35-1.34-3.22
		C43.94,6.82,42.83,6.38,41.52,6.38z"/>
	<path d="M60.21,17.33c1.31,0,2.42-0.43,3.31-1.3c0.9-0.86,1.34-1.94,1.34-3.22c0-1.28-0.45-2.35-1.34-3.22
		c-0.9-0.86-2-1.3-3.31-1.3c-1.31,0-2.42,0.43-3.31,1.3c-0.9,0.86-1.34,1.94-1.34,3.22c0,1.28,0.45,2.35,1.34,3.22
		C57.8,16.9,58.9,17.33,60.21,17.33z"/>
	<path d="M23.62,16.85c-2.21,0-3.98,0.46-5.3,1.37c-0.74,0.51-1.43,1.16-2.08,1.93l-0.46-2.21c-0.1-0.46-0.51-0.79-0.98-0.79H9.3
		c-0.55,0-1,0.45-1,1V40.9c0,0.55,0.45,1,1,1h6.3c0.55,0,1-0.45,1-1V29.09c0-1.22,0.18-2.24,0.53-3.07c0.35-0.83,0.86-1.46,1.54-1.9
		c0.67-0.43,1.49-0.65,2.45-0.65c1.44,0,2.48,0.46,3.12,1.39c0.64,0.93,0.96,2.34,0.96,4.22V40.9c0,0.55,0.45,1,1,1h6.3
		c0.55,0,1-0.45,1-1V28.66c0-4.32-0.94-7.37-2.81-9.14C28.82,17.74,26.46,16.85,23.62,16.85z"/>
	<path d="M70.57,35.04H60.05l10.74-12.15c0.16-0.18,0.25-0.42,0.25-0.66v-3.66c0-0.67-0.65-1.16-1.29-0.96
		c-1.65,0.52-4.88,1.29-9.54,1.29c-4.66,0-7.88-0.77-9.54-1.29c-0.64-0.2-1.29,0.29-1.29,0.96c0,0,0,2.59,0,4.7
		c0,0.45,0.3,0.85,0.74,0.97c3.06,0.83,8.82,0.79,8.82,0.79l-9.83,11.12c-0.16,0.18-0.25,0.42-0.25,0.66v4.09c0,0.55,0.45,1,1,1
		h20.7c0.55,0,1-0.45,1-1v-4.86C71.57,35.49,71.12,35.04,70.57,35.04z"/>
	<path d="M98.34,29.26l-5.84,2.13c-0.37,0.14-0.63,0.48-0.65,0.87c-0.04,0.66-0.26,1.26-0.67,1.78c-0.53,0.69-1.34,1.23-2.42,1.62
		c-0.9,0.33-1.73,0.44-2.49,0.32c-0.76-0.12-1.43-0.42-2.02-0.92c-0.59-0.5-1.12-1.19-1.58-2.08l-0.02-0.04l-0.02-0.04l16.24-5.92
		c-0.05-0.42-0.14-0.86-0.27-1.31c-0.13-0.45-0.27-0.88-0.42-1.3c-0.81-2.23-2.05-4-3.72-5.31c-1.67-1.32-3.62-2.1-5.83-2.34
		c-2.22-0.25-4.56,0.08-7.03,0.98c-2.41,0.88-4.34,2.14-5.8,3.77c-1.46,1.64-2.37,3.55-2.72,5.72c-0.35,2.17-0.08,4.47,0.81,6.91
		c0.88,2.41,2.16,4.31,3.84,5.7c1.68,1.4,3.69,2.21,6.03,2.45c2.34,0.24,4.87-0.14,7.61-1.14c2.1-0.77,3.83-1.81,5.17-3.13
		c1.34-1.32,2.26-2.78,2.75-4.37c0.36-1.16,0.5-2.32,0.42-3.48C99.64,29.46,98.96,29.04,98.34,29.26z M81.06,25.95
		c0.19-0.65,0.54-1.22,1.04-1.71c0.5-0.49,1.14-0.88,1.93-1.16c1.17-0.43,2.25-0.49,3.23-0.18c0.98,0.31,1.78,0.98,2.39,2.01
		l-8.66,3.15C80.84,27.31,80.86,26.6,81.06,25.95z"/>
	<path d="M109.83,8.3h-6.3c-0.55,0-1,0.45-1,1v31.6c0,0.55,0.45,1,1,1h6.3c0.55,0,1-0.45,1-1V9.3C110.83,8.75,110.38,8.3,109.83,8.3
		z"/>
	<path d="M44.96,18.07c-1.04,0.46-2.2,0.7-3.47,0.7c-1.27,0-2.42-0.24-3.47-0.7c-0.32-0.14-0.69,0.11-0.69,0.46V40.9
		c0,0.55,0.45,1,1,1h6.3c0.55,0,1-0.45,1-1V18.53C45.65,18.17,45.29,17.92,44.96,18.07z"/>
</g>
</svg>
